<svg id="Layer_1" data-name="Layer 1" xmlns="http://www.w3.org/2000/svg" viewBox="0 0 424.34 237.47"><defs><style>.cls-1{fill:#48b5be;}.cls-2{fill:#fff;}.cls-3{fill:#fec80f;}.cls-4{fill:#00637d;}</style></defs><rect class="cls-1" y="0.83" width="424.34" height="236.64"/><path class="cls-2" d="M84.78,106.8a34.63,34.63,0,1,0,34.63,34.62A34.62,34.62,0,0,0,84.78,106.8Zm0,57.11a22.49,22.49,0,1,1,22.49-22.49A22.48,22.48,0,0,1,84.78,163.91Z"/><path class="cls-2" d="M125.59,168.43v-16.9c0-10.7-1.66-20.77,3.85-30.35,5-8.73,13.52-14.38,23.76-14.38,12.85,0,26.31,7.22,29.73,20.32,1.45,5.55.83,11.72.83,17.42q0,9-.07,17.94,0,3.45,0,6.9s-.11,5.6-6.45,5.6-6.07-5.27-6.07-5.27V141.12c0-5.55.56-9.6-2.93-14.25-3.16-4.2-7.74-7.22-13.13-7.22s-12,3.82-14.9,8.43c-2.26,3.63-1.43,8.71-1.43,12.84v28.17s-1,5.89-7.14,5.89S125.59,168.43,125.59,168.43Z"/><path class="cls-2" d="M234.1,168.43v-16.9c0-10.7-1.66-20.77,3.85-30.35,5-8.73,13.52-14.38,23.75-14.38,12.86,0,26.32,7.22,29.74,20.32,1.45,5.55.83,11.72.83,17.42q0,9-.07,17.94,0,3.45,0,6.9s-.12,5.6-6.45,5.6-6.07-5.27-6.07-5.27V141.12c0-5.55.56-9.6-2.93-14.25-3.16-4.2-7.74-7.22-13.13-7.22s-12,3.82-14.9,8.43c-2.26,3.63-1.43,8.71-1.43,12.84v28.17s-1,5.89-7.14,5.89S234.1,168.43,234.1,168.43Z"/><rect class="cls-2" x="191.98" y="87.05" width="12.14" height="86.62" rx="6.07"/><rect class="cls-2" x="214.11" y="108.47" width="12.14" height="66.51" rx="5.32"/><path class="cls-2" d="M362.36,147s8.45,0,6.66-9.76c0,0-4-30.46-36.88-30.46-5.84,0-12.15,2.45-16.95,5.6-11.84,7.78-16.88,23.38-14.29,37a27.19,27.19,0,0,0,3.82,10A35.55,35.55,0,0,0,321.55,173a37.12,37.12,0,0,0,22.39,1,20.43,20.43,0,0,0,3-1.13,39.82,39.82,0,0,0,14.91-11.75s3.22-4.41-.83-7.26-7.37-1.19-9.64.71-11.42,10.83-24.62,7S314.1,147,314.1,147Zm-26.74-25.35c13.48,0,19.7,14.52,19.7,14.52H315.47C315.94,132.26,322.13,121.67,335.62,121.67Z"/><path class="cls-3" d="M224.55,92.42a6.35,6.35,0,1,0,.26,9A6.38,6.38,0,0,0,224.55,92.42Z"/><path class="cls-4" d="M234.45,81.46a21.89,21.89,0,0,0-15.66-6A4.29,4.29,0,0,0,219,84a13.4,13.4,0,0,1,13.71,13,4.29,4.29,0,1,0,8.58-.2A21.86,21.86,0,0,0,234.45,81.46Z"/><path class="cls-4" d="M269.51,96.11A50.34,50.34,0,0,0,218,47.24a4.29,4.29,0,0,0,.25,8.58,41.74,41.74,0,0,1,42.72,40.5,4.29,4.29,0,1,0,8.57-.21Z"/><path class="cls-4" d="M243.89,71.5a35.55,35.55,0,0,0-25.5-9.8,4.23,4.23,0,0,0-3,1.33,4.19,4.19,0,0,0-1.17,3.06,4.3,4.3,0,0,0,4.41,4.18,27.2,27.2,0,0,1,27.84,26.42,4.3,4.3,0,0,0,7.41,2.85,4.25,4.25,0,0,0,1.17-3.06A35.59,35.59,0,0,0,243.89,71.5Z"/></svg>