<?xml version="1.0" encoding="utf-8"?>
<!-- Generator: Adobe Illustrator 16.0.0, SVG Export Plug-In . SVG Version: 6.00 Build 0)  -->
<!DOCTYPE svg PUBLIC "-//W3C//DTD SVG 1.1//EN" "http://www.w3.org/Graphics/SVG/1.1/DTD/svg11.dtd">
<svg version="1.1" id="Layer_1" xmlns="http://www.w3.org/2000/svg" xmlns:xlink="http://www.w3.org/1999/xlink" x="0px" y="0px"
	 width="245px" height="157.333px" viewBox="0 0 245 157.333" enable-background="new 0 0 245 157.333" xml:space="preserve">
<g>
	<g>
		<path fill="#28C0A5" d="M206.212,45.841h-23.781V18.688c0-7.748-6.305-14.049-14.041-14.049H16.7
			c-7.735,0-14.045,6.301-14.045,14.049v114.224c0,2.588,2.1,4.68,4.683,4.68h16.333c2.149,9.649,10.764,16.847,21.019,16.847
			c6.811,0,12.907-3.173,16.858-8.146c3.949,4.974,10.029,8.146,16.854,8.146c10.259,0,18.874-7.198,21.001-16.847h83.548
			c2.147,9.649,10.747,16.847,21.017,16.847c10.258,0,18.857-7.198,21.018-16.847h12.681c2.582,0,4.679-2.092,4.679-4.68V81.989
			C242.345,62.058,226.14,45.841,206.212,45.841z M44.689,145.084c-6.71,0-12.171-5.457-12.171-12.172
			c0-6.713,5.461-12.159,12.171-12.159c6.713,0,12.175,5.446,12.175,12.159C56.864,139.627,51.402,145.084,44.689,145.084z
			 M78.402,145.084c-6.714,0-12.175-5.457-12.175-12.172c0-6.713,5.461-12.159,12.175-12.159c6.698,0,12.177,5.446,12.177,12.159
			C90.579,139.627,85.101,145.084,78.402,145.084z M173.052,128.237H99.403c-2.127-9.625-10.742-16.85-21.001-16.85
			c-6.825,0-12.905,3.173-16.854,8.155c-3.951-4.982-10.048-8.155-16.858-8.155c-10.255,0-18.869,7.226-21.019,16.85H12.021V18.688
			c0-2.581,2.095-4.688,4.679-4.688H168.39c2.584,0,4.662,2.107,4.662,4.688V128.237z M203.968,145.084
			c-6.714,0-12.188-5.457-12.188-12.172c0-6.713,5.475-12.159,12.188-12.159c6.698,0,12.177,5.446,12.177,12.159
			C216.145,139.627,210.666,145.084,203.968,145.084z M232.999,128.237h-8.014c-2.16-9.625-10.76-16.85-21.018-16.85
			c-10.27,0-18.869,7.226-21.017,16.85h-0.521V55.206h18.727v28.516c0,9.062,7.364,16.409,16.432,16.409h15.41V128.237z
			 M232.999,90.786h-15.41c-3.915,0-7.068-3.165-7.068-7.064V55.558c12.726,2.066,22.479,13.124,22.479,26.431V90.786z"/>
	</g>
</g>
</svg>
